<svg version="1.1" id="Layer_1" xmlns="http://www.w3.org/2000/svg" xmlns:xlink="http://www.w3.org/1999/xlink" x="0px" y="0px"
	viewBox="0 0 128 128" style="enable-background:new 0 0 128 128;" xml:space="preserve">
	<g transform="translate(0.000000,1128.000000) scale(0.100000,-0.100000)">
		<path class="st0" d="M655.2,11193.5c0-1.1-9.3-1.9-24.4-1.9c-85.7,0-185.5-32.2-265.2-85.5c-93.2-62.3-161.9-144.8-205.9-246.9
			c-16.6-38.7-32.4-91.1-40-132.4c-4.2-23.2-5.1-26.7-7.2-26.7c-1,0-6.7,2.3-12.8,5.1c-10.1,4.6-13.5,5.1-32.2,5.3
			c-17.7,0-22.3-0.6-30.1-4.2c-24.2-11.2-35.4-28.8-37.1-57.5c-1.3-26.3,3.4-49.3,20.8-96.8c33.9-94.1,84.8-176.4,155.1-251.7
			c37.3-39.8,68.2-66.9,110.5-96.8c66.5-47.1,153-87.1,221.9-102.5c7.8-1.7,17.3-4,21-5.1c9.9-2.7,43.6-7.2,70.5-9.3
			c133.4-11,266.5,21.1,362,87.4c51.4,35.6,94.7,81.3,125.7,132.6c13.3,22.3,36,66.9,44,87.1c15.6,39.1,37.5,113,42.1,141.5
			c1.7,11,2.3,12,13.3,21c31.8,26.1,63.4,75.6,79.6,124.6c9.7,29.5,13.3,50.5,13.3,75.2c-0.2,22.9-2.1,32.4-9.9,48.4
			c-8.8,17.7-18.5,27.8-35.2,36c-13.3,6.7-16,7.2-33.7,7.8c-14.9,0.6-23.1-0.2-36.2-3.2c-9.3-2.3-17.1-3.8-17.5-3.6
			c-0.2,0.4-4.4,10.5-9.3,22.5c-17.3,42.9-53.7,106.3-79.2,138.1c-35.6,44.4-78.7,84-121.7,112c-74.1,48-170.5,77.5-253.7,77.5
			c-15,0-24.4,0.8-24.4,1.9c0,1.1-0.8,1.9-1.9,1.9C656.1,11195.4,655.2,11194.7,655.2,11193.5z M709.6,11158.3
			c74.9-8,139.8-28.8,197-63.4c116-70.5,201-195.5,229.4-337.6c9.3-46.1,11.2-68,11.2-122.9c0-71.2-4.8-103.3-26.7-174.3
			c-13.9-45.3-39.2-102.5-60.2-136.6c-71.4-115.1-193-186.3-346.7-203.5c-43.6-4.8-121.9-2.9-156.6,4c-57.3,11-96.6,23.2-142.9,44
			c-158.7,71.1-291.7,212-356,377.2c-32.4,83.1-33.7,124.2-4.2,132.2c13.7,3.8,26.3,1,52.4-11.2c13.1-6.3,26.3-12,29.1-12.6
			c5.5-1.3,5.9-0.6,8.2,19.8c8.8,77.2,39.4,172.2,74.9,232C323.1,11082.1,511.7,11179,709.6,11158.3z M1220,10812.1
			c7.2-3.8,12.4-8.6,17.5-15.8c18.3-26.3,10.5-88.2-18.3-145.5c-11.6-22.9-45.3-68-48.6-64.8c-0.6,0.6-0.4,11.2,0.8,23.8
			c2.7,33,2.3,75.1-1,99.8c-3,23.6-16.2,77.5-22.7,93.5c-1.1,2.5,1.5,3.8,12.6,7c19.2,5.5,21.3,5.9,38.7,5.3
			C1208.4,10815.2,1216.6,10813.9,1220,10812.1z"/>
		<path class="st0" d="M659,10879.8c0-5.7,11.4-26.9,21.5-40c29.3-38.1,75.6-76.4,104.8-86.5c7-2.5,7.4-2.9,6.1-9.3
			c-4.4-24.8-2.5-45.9,6.1-64.2c11-23.6,35.6-23.6,47.1,0c8.6,17.3,10.7,42.9,5.7,67.6c-1,5-0.6,5.5,7.2,7.8
			c17.3,5.1,37.5,22.9,44.4,39.1l2.3,5.3l4.2-6.9c6.1-9.9,20-21.3,34.3-28.4l12.6-6.1v-25.7c0-21.9,0.6-27.6,4.4-38.1
			c7.4-21.1,16.2-27.6,28.8-21.5c8.6,4.2,14.5,14.7,17.1,30.1c2.5,13.5,2.5,39.6,0.4,53c-1.5,8.8-1.3,9.3,5.3,15
			c17.9,15.8,29.1,35.1,32.6,55.2c3.8,24.4,1.5,25-8.2,2.1c-4-9.3-10.3-21-13.9-25.9c-12-16.6-32.4-26.1-56-26.1
			c-10.5,0-13.9,1-21.1,5.3c-12.8,8.2-24,21.7-32,38.3l-7.2,15l-3-6.3c-5.7-11.8-20-32.4-28.2-40.8c-4.6-4.6-13.9-11-20.8-14.3
			c-11.2-5.3-13.9-5.9-29.5-5.7c-26.7,0.6-51.6,11.2-85.5,36.8c-16.2,12.4-56.2,51.4-72.2,70.5C660.3,10882.2,659,10883,659,10879.8z
			M998.1,10749.7c0-11.8-4.2-23.8-9-25.7c-7.6-2.9-15.8,9.5-15.8,23.6c0,6.9,0.6,7.8,5.3,9c2.9,0.6,7.2,1.9,9.9,2.7
			C997.5,10762.2,998.1,10761.7,998.1,10749.7z M841.8,10730.2c-0.8-4.2-3.6-9.9-6.3-12.6c-4.6-4.6-5.1-4.6-9.5-1.7
			c-5.3,3.4-9.5,16.4-8.6,26.3c0.6,6.5,0.6,6.5,12,7.4l11.4,1l1.1-6.3C842.6,10740.9,842.6,10734.4,841.8,10730.2z"/>
		<path class="st0" d="M280.8,10829.7c-33.1-3.6-48.6-21.7-48.6-57.2c0-45.9,19.8-93.2,59.8-142.9c16.2-20.2,65.3-69.9,75.2-76.4
			c9.9-6.5,13.7-6.9,17.9-2.1c7.6,8.4,5.1,12.4-28.8,45.9c-68.2,67.2-105.2,126.1-105.7,167.5c0,14.5,3,23.2,11.8,33.1
			c25.9,29.5,117.3,7.4,210.5-50.5c22.3-13.9,27.8-16.6,34.5-16.6c10.3,0,15.6,3.6,12.8,9c-10.1,18.9-100.2,64.6-161.4,82.1
			C331.9,10829.5,304.8,10832.1,280.8,10829.7z"/>
		<path class="st0" d="M1086.5,10651.2c-2.1-13.9-8.6-23.8-20-30.7c-19.4-11.6-54.5-22.9-91.3-29.1c-18.3-3-71.2-3-97.2,0
			c-26.7,3.2-99.3,16.4-122.1,22.1c-24.8,6.3-49,15-67.4,24.4c-44.2,22.1-60,21.9-65.9-1c-3.8-14.3-3-75.2,1-110.1
			c6.7-55.6,18.1-111.3,28.8-140.2c25.3-68.6,72.2-131.6,112.4-151.3c24-11.8,66.7-18.1,91.1-13.5c34.3,6.5,63.8,26.5,91.3,62.5
			c54.9,71.6,77.3,122.9,113.9,258.7c7.8,28.8,13.9,47.8,18.1,55.2c10.5,19.2,14.9,33.7,13.9,45.7
			C1091.8,10657.6,1088.2,10661.8,1086.5,10651.2z M747.9,10591.7c10.7-2.3,21.5-4,24.2-4c3.2,0,5-1.1,5-3c0-3.6-13.3-50.3-21.1-73.7
			c-6.5-19.1-14.3-36.6-18.1-39.6c-7.4-6.1-27.2,42.1-43.8,106.5c-3.6,13.9-6.5,26.5-6.5,27.8c0,1.9,5.5,0.8,20.6-3.6
			C719.4,10598.6,737.3,10594,747.9,10591.7z M1046.6,10583.5c-6.7-31.2-34.5-94.7-49.1-113l-4.8-5.7l-2.9,7
			c-7.8,18.7-21.7,94.1-18.1,97.7c0.6,0.8,13.3,4,28.4,7.6c15,3.6,31.2,7.8,36,9.3C1048.2,10590.4,1048,10590.4,1046.6,10583.5z
			M851,10573.2c10.5-1,15.6-2.1,15.6-3.6c0-5.1-15.4-33-23.2-41.7l-8.4-9.3l-6.1,11.4c-5.1,9.9-17.5,43.6-17.5,48.2
			c0,0.8,5.3,0.2,12-1.1C829.8,10575.7,842.2,10574,851,10573.2z M952.3,10567.7c0-2.5-19.6-33.5-25.7-40.6c-5.3-6.1-7.6-7.6-9.5-6.1
			c-3,2.7-9.7,20.4-13.1,35.8l-2.7,11.8h25.5C940.9,10568.7,952.3,10568.3,952.3,10567.7z M702,10462.8c9.3-1,10.1-1.5,16.8-11
			c11.8-17.1,19.2-18.1,29.7-4c5.5,7.4,4,7.4,34.3-2.3c26.5-8.6,59.2-24.8,73.2-36.2c16.4-13.3,27.6-29.1,35.8-50.1
			c8.4-21.5,11-33.9,11-50.3c0-65.5-70.9-90.7-134.9-48c-16.2,10.7-39.4,34.9-55.2,57.2c-22.1,31.6-45.7,84.4-55.6,125
			c-2.3,9-4.4,17.5-4.8,19c-0.8,2.5,2.1,2.9,19.6,2.3C683.2,10464.1,696.7,10463.3,702,10462.8z"/>
	</g>
	<style>
		path { fill: #000; }
		@media (prefers-color-scheme: dark) {
			path { fill: #FFF; }
		}
	</style>
</svg>
